HIERARCHY
ROOT joint_Root
{
	OFFSET 0.0 0.0 0.0
	CHANNELS 6 Xposition Yposition Zposition Zrotation Xrotation Yrotation 
	JOINT Hips
	{
		OFFSET -0.726466 93.3139 -2.00062
		CHANNELS 6 Xposition Yposition Zposition Zrotation Xrotation Yrotation 
		JOINT Spine
		{
			OFFSET 15.7357 0.0 0.0
			CHANNELS 6 Xposition Yposition Zposition Zrotation Xrotation Yrotation 
			JOINT Chest
			{
				OFFSET 8.98455 -0.406207 0.0
				CHANNELS 6 Xposition Yposition Zposition Zrotation Xrotation Yrotation 
				JOINT Neck
				{
					OFFSET 16.3773 0.0 0.0
					CHANNELS 6 Xposition Yposition Zposition Zrotation Xrotation Yrotation 
					JOINT Head
					{
						OFFSET 6.45672 0.0 0.0
						CHANNELS 6 Xposition Yposition Zposition Zrotation Xrotation Yrotation 
						End Site
						{
							OFFSET 0.0 0.0 0.0
						}
					}
				}
				JOINT Shoulder_L
				{
					OFFSET 12.9942 -0.242716 4.98039
					CHANNELS 6 Xposition Yposition Zposition Zrotation Xrotation Yrotation 
					JOINT UpperArm_L
					{
						OFFSET 5.34809 0.0 0.0
						CHANNELS 6 Xposition Yposition Zposition Zrotation Xrotation Yrotation 
						JOINT LowerArm_L
						{
							OFFSET 24.3286 1.87007e-05 0.0
							CHANNELS 6 Xposition Yposition Zposition Zrotation Xrotation Yrotation 
							JOINT Hand_L
							{
								OFFSET 22.2916 0.0 0.0
								CHANNELS 6 Xposition Yposition Zposition Zrotation Xrotation Yrotation 
								End Site
								{
									OFFSET 0.0 0.0 0.0
								}
							}
						}
					}
				}
				JOINT Shoulder_R
				{
					OFFSET 12.9945 -0.242716 -4.98039
					CHANNELS 6 Xposition Yposition Zposition Zrotation Xrotation Yrotation 
					JOINT UpperArm_R
					{
						OFFSET -5.34813 0.0 0.0
						CHANNELS 6 Xposition Yposition Zposition Zrotation Xrotation Yrotation 
						JOINT LowerArm_R
						{
							OFFSET -24.3289 0.000322201 0.0
							CHANNELS 6 Xposition Yposition Zposition Zrotation Xrotation Yrotation 
							JOINT Hand_R
							{
								OFFSET -22.2915 -0.000108084 0.0
								CHANNELS 6 Xposition Yposition Zposition Zrotation Xrotation Yrotation 
								End Site
								{
									OFFSET 0.0 0.0 0.0
								}
							}
						}
					}
				}
			}
		}
		JOINT UpperLeg_L
		{
			OFFSET -2.19248 -6.46944 0.0
			CHANNELS 6 Xposition Yposition Zposition Zrotation Xrotation Yrotation 
			JOINT LowerLeg_L
			{
				OFFSET 39.0811 0.0 -1.23785e-05
				CHANNELS 6 Xposition Yposition Zposition Zrotation Xrotation Yrotation 
				JOINT Foot_L
				{
					OFFSET 40.9854 0.0 -1.26872e-05
					CHANNELS 6 Xposition Yposition Zposition Zrotation Xrotation Yrotation 
					JOINT Toes_L
					{
						OFFSET 11.7543 0.0 0.0
						CHANNELS 6 Xposition Yposition Zposition Zrotation Xrotation Yrotation 
						End Site
						{
							OFFSET 0.0 0.0 0.0
						}
					}
				}
			}
		}
		JOINT UpperLeg_R
		{
			OFFSET -2.19251 6.46944 0.0
			CHANNELS 6 Xposition Yposition Zposition Zrotation Xrotation Yrotation 
			JOINT LowerLeg_R
			{
				OFFSET -39.0811 -0.00228153 -0.0401928
				CHANNELS 6 Xposition Yposition Zposition Zrotation Xrotation Yrotation 
				JOINT Foot_R
				{
					OFFSET -40.9854 0.0 0.0
					CHANNELS 6 Xposition Yposition Zposition Zrotation Xrotation Yrotation 
					JOINT Toes_R
					{
						OFFSET -11.7543 0.0 0.0
						CHANNELS 6 Xposition Yposition Zposition Zrotation Xrotation Yrotation 
						End Site
						{
							OFFSET 0.0 0.0 0.0
						}
					}
				}
			}
		}
	}
}
MOTION
Frames:	5
Frame Time:	0.0333333
0.000000 0.000000 0.000000 0.000000 0.000000 -0.000000 -7.083470 93.034100 69.799600 -87.966700 -7.310860 167.851000 15.735700 0.000005 -0.000001 47.018400 80.185900 -44.116100 8.984550 -0.406207 -0.000000 7.088280 -13.355100 6.649900 16.377300 -0.000001 -0.000001 7.043370 -1.229820 -2.093160 6.456720 -0.000001 -0.000000 -1.260680 5.539150 0.114194 12.994200 -0.242716 4.980390 -85.768700 -13.030800 -71.834200 5.348090 -0.000007 -0.000001 -64.385500 22.097500 -18.536900 24.328600 0.000019 0.000005 -8.813530 -2.002640 -77.298400 22.291600 -0.000001 0.000005 0.533548 5.598530 -11.253000 12.994500 -0.242716 -4.980390 92.497700 -4.262670 -59.593300 -5.348130 -0.000001 -0.000004 -65.249900 34.066300 14.263700 -24.328900 0.000322 -0.000009 -11.996100 -6.446360 -62.145100 -22.291500 -0.000108 -0.000004 -2.263130 5.544380 -8.442310 -2.192480 -6.469440 -0.000000 -169.553000 -10.401800 7.929050 39.081100 -0.000007 -0.000012 0.030613 -0.059157 27.360900 40.985400 -0.000006 -0.000013 -5.768800 0.733884 -37.145200 11.754300 -0.000000 0.000003 -0.005046 -0.061919 -19.096200 -2.192510 6.469440 -0.000001 -169.520000 15.692500 144.553000 -39.081100 -0.002282 -0.040193 -0.013820 0.069763 13.813400 -40.985400 0.000008 0.000006 -5.672750 3.898290 -64.686800 -11.754300 -0.000006 -0.000006 -0.026783 -0.202323 -24.854500
0.000000 0.000000 0.000000 0.000000 0.000000 -0.000000 -6.878310 91.604000 60.312700 -89.904900 -6.979220 167.874000 15.735700 0.000005 -0.000001 45.113500 80.246100 -42.841500 8.984550 -0.406207 -0.000000 6.478390 -13.753100 5.337930 16.377300 -0.000001 -0.000001 7.235960 -1.305020 -1.919600 6.456720 -0.000001 -0.000000 -1.110120 6.088480 -0.036757 12.994200 -0.242716 4.980390 -85.541000 -13.481900 -71.505500 5.348090 -0.000007 -0.000001 -65.368900 23.044100 -16.357500 24.328600 0.000019 0.000005 -9.068360 -2.034510 -77.460000 22.291600 -0.000001 0.000005 1.213600 5.602020 -11.462600 12.994500 -0.242716 -4.980390 92.440800 -3.953610 -58.273700 -5.348130 -0.000001 -0.000004 -65.399800 34.223200 14.622000 -24.328900 0.000322 -0.000009 -12.492100 -6.263540 -63.779700 -22.291500 -0.000108 -0.000004 -2.570510 5.538440 -8.171660 -2.192480 -6.469440 -0.000000 -170.829000 -7.384220 9.191880 39.081100 -0.000007 -0.000012 0.026731 -0.038371 34.861300 40.985400 -0.000006 -0.000013 -4.267040 -6.321080 -40.153100 11.754300 -0.000000 0.000003 -0.004972 -0.061198 -19.066800 -2.192510 6.469440 -0.000001 -167.983000 18.325200 144.016000 -39.081100 -0.002282 -0.040193 -0.007804 0.079004 8.030800 -40.985400 0.000008 0.000006 -8.583410 1.013770 -67.004600 -11.754300 -0.000006 -0.000006 -0.027003 -0.203383 -24.898400
0.000000 0.000000 0.000000 0.000000 0.000000 -0.000000 -6.595890 89.389900 50.760500 -89.908600 -5.883300 169.282000 15.735700 0.000005 -0.000001 48.803900 80.298200 -46.610800 8.984550 -0.406207 -0.000000 7.220240 -12.746600 5.202980 16.377300 -0.000001 -0.000001 8.171860 -1.416310 -2.109710 6.456720 -0.000001 -0.000000 -2.238740 6.125590 -0.043923 12.994200 -0.242716 4.980390 -85.795000 -12.820700 -71.668600 5.348090 -0.000007 -0.000001 -66.256600 23.711300 -13.840900 24.328600 0.000019 0.000005 -9.519410 -2.285710 -76.621800 22.291600 -0.000001 0.000005 1.179100 5.599510 -11.313800 12.994500 -0.242716 -4.980390 91.847000 -2.969940 -58.107000 -5.348130 -0.000001 -0.000004 -64.646200 32.520300 13.643100 -24.328900 0.000322 -0.000009 -12.525200 -6.169650 -64.181000 -22.291500 -0.000108 -0.000004 -2.885940 5.535510 -8.039760 -2.192480 -6.469440 -0.000000 -172.057000 -3.533690 10.646800 39.081100 -0.000007 -0.000012 0.069019 -0.070376 44.441000 40.985400 -0.000006 -0.000013 1.404890 -8.546220 -39.406400 11.754300 -0.000000 0.000003 -0.005434 -0.065617 -19.246900 -2.192510 6.469440 -0.000001 -165.018000 18.829800 139.479000 -39.081100 -0.002282 -0.040193 0.012675 -0.026056 19.746500 -40.985400 0.000008 0.000006 2.299950 0.147388 -69.330800 -11.754300 -0.000006 -0.000006 -0.034652 -0.238047 -26.337500
0.000000 0.000000 0.000000 0.000000 0.000000 -0.000000 -6.196080 86.588200 41.463900 -86.897100 -4.387510 170.412000 15.735700 0.000005 -0.000001 56.374100 80.468600 -53.129300 8.984550 -0.406207 -0.000000 8.521420 -10.486800 7.281550 16.377300 -0.000001 -0.000001 8.548220 -1.505540 -2.844620 6.456720 -0.000001 -0.000000 -3.946940 5.941970 0.016397 12.994200 -0.242716 4.980390 -86.452000 -10.796800 -71.684600 5.348090 -0.000007 -0.000001 -66.315200 24.831700 -11.128400 24.328600 0.000019 0.000005 -10.220800 -2.813550 -74.772400 22.291600 -0.000001 0.000005 0.943339 5.601280 -11.419000 12.994500 -0.242716 -4.980390 90.542600 -0.917253 -59.427400 -5.348130 -0.000001 -0.000004 -61.557800 30.243300 11.104400 -24.328900 0.000322 -0.000009 -12.977600 -6.211510 -64.846700 -22.291500 -0.000108 -0.000004 -2.090900 5.541840 -8.325130 -2.192480 -6.469440 -0.000000 -168.975000 -3.765430 7.843560 39.081100 -0.000007 -0.000012 0.097822 -0.057383 59.601600 40.985400 -0.000006 -0.000013 2.966180 -7.518460 -37.780900 11.754300 -0.000000 0.000003 -0.005823 -0.069224 -19.394000 -2.192510 6.469440 -0.000001 -163.966000 13.602400 135.265000 -39.081100 -0.002282 -0.040193 0.228876 -0.306470 36.356500 -40.985400 0.000008 0.000006 10.445000 -4.245130 -57.775900 -11.754300 -0.000006 -0.000006 -0.029787 -0.216486 -25.441500
0.000000 0.000000 0.000000 0.000000 0.000000 -0.000000 -6.042370 83.643000 32.258500 -83.032300 -1.520920 174.766000 15.735700 0.000005 -0.000001 69.450800 79.041000 -65.063000 8.984550 -0.406207 -0.000000 13.140100 -7.410760 9.641030 16.377300 -0.000001 -0.000001 5.531060 -0.474728 -2.504720 6.456720 -0.000001 -0.000000 -3.888900 5.836950 -1.480640 12.994200 -0.242716 4.980390 -87.130100 -8.231910 -70.700000 5.348090 -0.000007 -0.000001 -66.262500 26.423100 -8.419210 24.328600 0.000019 0.000005 -11.987300 -4.124060 -71.299200 22.291600 -0.000001 0.000005 1.718350 5.613740 -12.198000 12.994500 -0.242716 -4.980390 88.985800 1.862690 -61.402500 -5.348130 -0.000001 -0.000004 -55.668800 29.188100 3.736190 -24.328900 0.000322 -0.000009 -14.225500 -6.836910 -64.845000 -22.291500 -0.000108 -0.000004 -0.488903 5.552990 -8.837680 -2.192480 -6.469440 -0.000000 -165.300000 -4.651890 5.295130 39.081100 -0.000007 -0.000012 0.162510 -0.036714 77.267100 40.985400 -0.000006 -0.000013 1.240770 -7.745930 -37.469600 11.754300 -0.000000 0.000003 -0.005403 -0.065321 -19.234800 -2.192510 6.469440 -0.000001 -163.765000 6.637550 138.544000 -39.081100 -0.002282 -0.040193 0.158745 -0.121110 52.088000 -40.985400 0.000008 0.000006 10.587300 -10.542000 -66.766500 -11.754300 -0.000006 -0.000006 -0.009605 -0.100658 -20.673800
